<?xml version="1.0" encoding="UTF-8" standalone="no"?>
<!-- Created with Inkscape (http://www.inkscape.org/) -->
<svg id="svg2" xmlns="http://www.w3.org/2000/svg" height="360" width="400" version="1.0" xmlns:xlink="http://www.w3.org/1999/xlink">
 <defs id="defs5">
  <linearGradient id="linearGradient2812">
   <stop id="stop2814" offset="0"/>
   <stop id="stop2816" stop-color="#fff" stop-opacity="0" offset="1"/>
  </linearGradient>
  <radialGradient id="radialGradient2842" xlink:href="#linearGradient2812" gradientUnits="userSpaceOnUse" cy="243.62" cx="235.82" gradientTransform="matrix(.59968 2.1061 -1.1992 .34144 437.03 -356.74)" r="90.353"/>
  <radialGradient id="radialGradient2879" xlink:href="#linearGradient2812" gradientUnits="userSpaceOnUse" cy="155.32" cx="144.95" gradientTransform="matrix(-.58353 2.4555 -1.4376 -.34162 451.51 -165.91)" r="76.361"/>
  <linearGradient id="linearGradient2895" y2="26.29" gradientUnits="userSpaceOnUse" x2="263.83" y1="304.51" x1="92.604">
   <stop id="stop2891" stop-color="#a0a3e1" offset="0"/>
   <stop id="stop2893" stop-color="#dedcfa" offset="1"/>
  </linearGradient>
  <mask id="mask2804">
   <path id="use2848" d="m100 24s-11.5 42.5 34 52 83-9 83-9-6 96.46-21 125.46-54.5 61.54-78 61.54-42-15.5-48-30.5-9.5-95.5 1-121.5c7.203-17.836 2-23.5 11-52.5 5.643-18.184 18.5-26.5 18-25.5z" fill-rule="evenodd" stroke="#fff" stroke-width="1.25" fill="#fff"/>
  </mask>
  <mask id="mask2811">
   <path id="use2796" stroke-linejoin="round" d="m168.99 144.76s45.5 11.87 77.15 3.96c31.66-7.91 63.31-45.5 63.31-45.5s34.62 88.03 38.57 118.69c3.96 30.67 1.98 67.26-20.77 90.01s-71.58 13.49-94.95-9.89c-13.89-13.88-27.7-40.55-39.57-68.25-11.87-27.69-24.73-90.01-23.74-89.02z" fill-rule="evenodd" stroke="#fff" stroke-width="1.25" fill="#fff"/>
  </mask>
 </defs>
 <path id="path2869" d="m374 169a190 152 0 1 1 -380 0 190 152 0 1 1 380 0z" transform="matrix(.85164 -.52413 .52413 .85164 -45.279 130.51)" fill="url(#linearGradient2895)"/>
 <path id="path2871" d="m109 34s-11.5 42.5 34 52 83-9 83-9-6 96.46-21 125.46-54.5 61.54-78 61.54-42-15.5-48-30.5-9.5-95.5 1-121.5c7.203-17.836 2-23.5 11-52.5 5.643-18.184 18.5-26.5 18-25.5z" fill-rule="evenodd" fill="url(#radialGradient2879)"/>
 <path id="path2810" d="m178.99 153.76s45.5 11.87 77.15 3.96c31.66-7.91 63.31-45.5 63.31-45.5s34.62 88.03 38.57 118.69c3.96 30.67 1.98 67.26-20.77 90.01s-71.58 13.49-94.95-9.89c-13.89-13.88-27.7-40.55-39.57-68.25-11.87-27.69-24.73-90.01-23.74-89.02z" fill-rule="evenodd" fill="url(#radialGradient2842)"/>
 <path id="path1891" stroke-linejoin="round" d="m168.99 144.76s45.5 11.87 77.15 3.96c31.66-7.91 63.31-45.5 63.31-45.5s34.62 88.03 38.57 118.69c3.96 30.67 1.98 67.26-20.77 90.01s-71.58 13.49-94.95-9.89c-13.89-13.88-27.7-40.55-39.57-68.25-11.87-27.69-24.73-90.01-23.74-89.02z" fill-rule="evenodd" stroke="#000" stroke-width="3.125" fill="#e8e7fe"/>
 <path id="path2779" d="m230 130s-1 38 3 47 12 8 16 13-1 54 5 64 16 0 20 3-1 9 5 11 19-11.5 22-17.5 7.5-8.5 12-7.5 6 16.75 1.5 25.25c-1.75 3.31-3.5 8.88-12.13 13.8-8.62 4.92-23.62 4.2-21.87 11.95 1.68 7.46 11 0.25 13 4.25s-2.53 9.43-1.5 14.25c2.25 10.5 21.5 21.75 21.5 21.75l-179.5 8.75-5-211.5 101-1.5z" fill-rule="evenodd" mask="url(#mask2811)"/>
 <path id="path2802" d="m202.45 210.12c2.7 0.2 4.9-1.66 12.49-2.07 7.58-0.42 16.06 1.24 16.06-3.74 0-4.99-7.58-8.73-16.06-7.48s-16.06 7.48-16.96 9.97c-0.76 2.12 1.82 3.14 4.47 3.32z" fill-rule="evenodd" fill="#e8e7fe"/>
 <path id="path2804" d="m281.07 195.6c5.1-0.13 7.78-3.89 14.85-7.07 7.08-3.19 18.74-4.25 19.8-8.84 1.06-4.6-8.84-9.55-19.44-7.43-11.73 2.35-14.09 7.39-18.03 13.08-2.63 3.8-2.5 10.39 2.82 10.26z" fill-rule="evenodd"/>
 <path id="path2806" d="m264 170c4 4.67 13 0 18.5-4.5s7-11 12.5-14.5c4.3-2.74 13.59-0.61 14-3.5 0.5-3.5-9-8-17.5-3.5s-9.5 9.5-16 14.5-14.29 8.24-11.5 11.5z" fill-rule="evenodd"/>
 <path id="path2808" d="m332 245s-9-14.5-17-15-11 5.5-16 6c-3.52 0.35-10.5-0.5-10.5-0.5s4 7 10 7 10-6 13.5-5.5 20 8 20 8z" fill-rule="evenodd"/>
 <path id="path2844" d="m100 24s-11.5 42.5 34 52 83-9 83-9-6 96.46-21 125.46-54.5 61.54-78 61.54-42-15.5-48-30.5-9.5-95.5 1-121.5c7.203-17.836 2-23.5 11-52.5 5.643-18.184 18.5-26.5 18-25.5z" fill-rule="evenodd" stroke="#000" stroke-width="3.125" fill="#e8e7fe"/>
 <path id="path2846" d="m127.99 55.237s-19.8 19.799-23.34 25.456c-3.53 5.657-6.362 11.314-4.948 16.263 1.418 4.954 7.068 4.954 7.068 13.434 0 8.49-11.311 19.09-14.139 27.58-2.828 8.48-5.657 20.5-2.121 24.75 3.535 4.24 7.778 2.12 9.192 5.65 1.418 3.54-0.707 6.37 1.418 9.2 2.12 2.82 19.8 2.12 29.69 11.31 9.9 9.19 14.85 25.46 9.9 28.99-4.95 3.54-13.43 1.42-16.97-4.95-3.53-6.36-10.6-13.43-15.55-14.14s-16.266-2.12-16.266 1.41c0 3.54 12.016 5.66 14.146 9.9 2.12 4.25 4.24 7.78 0.7 8.49-3.53 0.71-9.896-5.66-12.018-2.12-2.121 3.53-2.828 12.73 0.707 19.09 3.536 6.36 19.801 30.4 19.801 30.4h-62.934v-254.55l76.364-0.004-0.7 43.841z" fill-rule="evenodd" mask="url(#mask2804)"/>
 <path id="path2861" d="m88.25 99.75c10.252 0.89 10.5 7.5 0.75 8-8.333 0.43-9.75 0-9.25-3.75 0.313-2.35 5.264-4.53 8.5-4.25z" fill-rule="evenodd" fill="#e8e7fe"/>
 <path id="path2863" d="m127.5 165s-0.5 9 4.5 17 12 12 15 20c2.05 5.48 5.75 16.25 5.75 16.25s2-16-1.5-21.5-9.5-10.5-13.5-15.5-9.75-16.25-10.25-16.25z" fill-rule="evenodd"/>
 <path id="path2865" d="m177.25 122.75c2.84-2.97-8.5-20.5-16.25-25.75-6.6-4.471-16.81-9.777-20.25-7.25-5.84 4.287-1.57 8.594 3.46 9.942 5.75 1.538 13.49 5.858 16.29 8.558 7 6.75 14.81 16.53 16.75 14.5z" fill-rule="evenodd"/>
 <path id="path2867" d="m159.45 133.37c3.98-2.75-3.18-13.43-8.13-16.61-4.95-3.19-8.48-5.46-13.43-4.42-5.8 1.21-10.58 8.39-9.9 10.43 1.06 3.18 8.83 3.32 14.49 6.01 6.72 3.18 13.26 7.15 16.97 4.59z" fill-rule="evenodd"/>
</svg>
