<?xml version="1.0" standalone="no"?>
<!DOCTYPE svg PUBLIC "-//W3C//DTD SVG 20010904//EN"
 "http://www.w3.org/TR/2001/REC-SVG-20010904/DTD/svg10.dtd">
<svg version="1.0" xmlns="http://www.w3.org/2000/svg"
 width="800.000000pt" height="800.000000pt" viewBox="0 0 800.000000 800.000000"
 preserveAspectRatio="xMidYMid meet">
<metadata>
Created by potrace 1.11, written by Peter Selinger 2001-2013
</metadata>
<g transform="translate(0.000000,800.000000) scale(0.100000,-0.100000)"
fill="#000000" stroke="none">
<path d="M4577 7304 c-1 -1 -56 -5 -123 -8 -66 -4 -131 -9 -145 -11 -13 -3
-51 -7 -84 -10 -59 -6 -81 -9 -147 -21 -50 -9 -90 -15 -118 -19 -14 -2 -26 -4
-27 -5 -4 -3 -11 -5 -63 -14 -162 -29 -606 -162 -699 -211 -17 -8 -33 -15 -36
-15 -14 -1 -56 -17 -138 -54 -31 -14 -59 -26 -62 -25 -3 0 -22 -9 -43 -20 -20
-10 -44 -22 -52 -25 -72 -27 -412 -221 -542 -308 -48 -32 -92 -58 -97 -58 -5
0 -11 -3 -13 -7 -1 -5 -14 -15 -28 -24 -24 -16 -26 -15 -48 10 -12 14 -20 32
-17 39 2 6 -1 12 -8 12 -7 0 2 9 18 20 17 11 25 20 18 20 -6 0 -15 -4 -18 -10
-12 -19 -35 -10 -41 18 -4 15 -12 31 -18 35 -6 5 -3 6 8 3 19 -7 19 -6 3 12
-16 18 -16 20 -2 26 9 3 13 11 9 18 -5 7 -2 9 8 6 8 -4 21 -2 29 3 9 5 4 7
-16 5 -17 -1 -29 -8 -27 -14 1 -7 -5 -12 -13 -12 -8 0 -15 8 -15 18 0 9 -3 28
-7 41 -4 16 -3 22 5 17 6 -3 14 -2 17 4 4 6 3 10 -2 9 -4 -1 -13 -1 -18 0 -28
3 -21 284 9 379 8 23 -18 34 -52 21 -34 -13 -183 -166 -231 -238 -46 -68 -121
-216 -121 -238 0 -7 -4 -21 -10 -31 -12 -22 -92 -321 -95 -357 -1 -10 -18
-116 -20 -125 -1 -3 -4 -27 -8 -55 -7 -44 -10 -79 -22 -203 -1 -18 -13 -43
-26 -55 -104 -101 -384 -455 -454 -574 -11 -18 -24 -33 -29 -33 -5 0 -7 -3 -3
-6 3 -4 -11 -32 -32 -63 -21 -31 -51 -81 -67 -111 -16 -30 -31 -57 -34 -60 -6
-6 -139 -274 -163 -330 -37 -86 -87 -224 -117 -320 -18 -58 -35 -112 -38 -120
-3 -8 -6 -19 -7 -25 -2 -5 -8 -30 -15 -55 -7 -25 -14 -54 -16 -65 -4 -23 -22
-107 -30 -145 -3 -14 -7 -38 -9 -55 -2 -16 -7 -47 -10 -67 -7 -40 -11 -82 -21
-198 -13 -149 -6 -496 11 -560 2 -8 7 -37 10 -65 13 -99 15 -111 29 -170 23
-90 38 -152 41 -165 10 -44 69 -207 104 -288 62 -143 196 -388 231 -422 3 -3
14 -18 24 -35 24 -37 20 -32 117 -149 266 -322 639 -590 1054 -756 90 -36 329
-116 372 -124 15 -3 46 -10 68 -16 59 -16 69 -18 122 -26 53 -9 62 -11 66 -13
5 -5 177 -29 207 -30 8 0 29 -3 45 -5 219 -36 744 -21 1008 29 37 7 67 10 67
8 0 -3 6 0 13 6 8 6 16 8 19 5 9 -8 280 54 457 106 168 50 406 137 561 205 94
42 134 49 151 29 6 -8 15 -11 20 -8 13 8 11 -20 -2 -33 -19 -19 17 -9 40 11
12 11 21 14 26 6 3 -5 11 -8 16 -5 5 4 9 1 9 -5 0 -7 -8 -9 -22 -5 -19 6 -21
5 -10 -6 10 -11 16 -11 32 -1 11 7 20 8 20 4 0 -9 7 -10 55 -13 30 -2 31 -4 5
-31 -11 -12 -20 -26 -20 -32 0 -6 13 5 30 24 16 19 29 29 30 23 0 -7 5 -13 11
-13 5 0 7 5 4 10 -4 6 4 5 19 -1 14 -7 23 -16 20 -21 -4 -6 3 -23 15 -39 26
-35 10 -39 -17 -4 -16 20 -21 22 -26 10 -3 -9 -12 -12 -23 -9 -15 5 -15 4 -3
-4 10 -8 18 -8 27 -1 8 8 16 5 25 -10 15 -25 26 -26 48 -6 15 13 19 13 38 -5
12 -12 22 -25 22 -30 0 -6 5 -10 11 -10 8 0 8 4 0 14 -17 20 -23 58 -8 53 7
-2 11 -12 9 -21 -2 -9 4 -19 12 -22 9 -3 13 -10 10 -15 -3 -5 3 -6 12 -2 13 5
15 3 9 -8 -8 -12 -6 -12 8 0 14 11 17 11 17 0 0 -10 3 -10 12 -1 19 19 32 14
17 -6 -11 -14 -11 -15 1 -4 18 16 30 16 26 -1 -1 -6 -1 -9 1 -4 3 4 9 7 14 7
6 0 8 -4 5 -8 -3 -5 1 -9 9 -9 8 0 13 5 12 10 -1 5 4 12 11 14 7 3 12 1 11 -4
-3 -18 2 -33 11 -33 5 0 9 5 7 11 -1 6 4 14 12 17 8 2 11 0 7 -6 -3 -6 -1 -14
6 -19 23 -13 39 -12 36 4 -2 9 3 18 10 20 7 3 12 1 11 -4 -4 -22 4 -29 36 -30
19 -1 35 3 35 8 0 4 -8 5 -17 2 -16 -6 -16 -5 -4 11 14 17 16 17 28 0 7 -9 10
-22 7 -28 -3 -6 2 -2 10 9 9 11 14 25 12 32 -7 17 9 17 23 -1 9 -10 8 -15 -4
-20 -8 -3 -15 -11 -14 -18 0 -10 2 -10 6 0 4 10 8 10 19 1 12 -9 13 -9 9 3 -3
8 1 21 10 28 13 11 15 10 13 -6 -2 -11 2 -19 7 -19 6 0 10 5 10 12 0 20 15 27
16 7 1 -10 1 -22 0 -26 0 -5 23 -4 39 2 3 1 8 2 13 1 4 0 7 5 7 12 0 8 4 7 11
-3 8 -12 9 -9 4 10 -6 25 -6 25 12 5 10 -11 25 -21 33 -23 8 -1 5 6 -8 16 -13
10 -20 21 -16 25 12 12 26 8 18 -5 -4 -7 -4 -10 1 -6 4 4 14 0 22 -10 12 -16
14 -16 24 1 9 15 13 16 26 6 12 -11 17 -10 24 4 13 22 30 22 23 0 -5 -14 -4
-15 4 -4 5 7 15 11 21 7 7 -5 8 -1 4 10 -5 13 -3 15 8 8 20 -12 39 -14 39 -3
0 6 4 7 10 4 6 -4 7 1 3 12 -6 15 -4 16 8 6 22 -18 55 -10 51 13 -3 16 -2 16
15 4 15 -12 16 -12 6 0 -21 23 -15 35 7 15 23 -21 39 -13 20 10 -8 9 -9 15 -2
15 6 0 16 -8 21 -17 10 -17 10 -17 12 0 1 9 2 23 3 29 0 7 10 14 21 16 12 2
16 0 9 -5 -9 -6 -7 -12 4 -23 14 -13 15 -12 9 4 -5 14 -3 17 8 13 8 -4 17 -2
20 4 4 5 10 7 14 5 8 -5 11 9 12 49 0 19 1 19 19 -2 17 -22 18 -22 23 -2 3 11
9 19 14 17 4 -1 23 12 42 30 18 18 27 30 19 27 -9 -4 -14 2 -15 16 -2 17 1 19
10 10 15 -15 20 -14 47 9 13 11 18 20 12 20 -6 0 -14 -5 -17 -10 -8 -12 -35 6
-35 22 0 7 5 7 13 0 16 -14 42 1 32 18 -5 8 -3 11 6 8 8 -3 13 -12 11 -19 -4
-16 -3 -15 56 57 34 42 39 53 26 58 -9 3 -19 4 -23 1 -4 -2 -8 8 -8 24 0 17 6
28 14 28 8 0 12 -6 9 -12 -5 -14 12 -35 28 -35 5 0 1 7 -10 16 -17 14 -17 15
-1 10 12 -4 21 2 29 19 6 13 14 22 19 20 4 -3 10 -1 13 4 4 5 1 13 -5 17 -6 3
-14 2 -18 -4 -4 -6 -11 -5 -19 4 -7 8 -11 14 -10 15 27 7 45 6 57 -4 12 -10
12 -9 0 10 -7 12 -15 20 -18 18 -2 -3 -10 0 -18 6 -10 9 -17 8 -30 -2 -15 -12
-16 -12 -11 2 4 9 1 22 -5 28 -15 15 -5 14 29 -3 15 -8 31 -13 36 -10 4 3 11
-2 14 -11 5 -12 10 -13 20 -4 8 6 11 16 8 21 -3 5 2 16 12 24 17 13 17 13 1 8
-13 -5 -16 -2 -11 9 3 9 13 14 22 10 14 -4 14 -3 3 5 -16 12 -44 4 -35 -9 3
-5 1 -9 -3 -9 -5 0 -14 9 -21 21 -10 16 -10 20 0 18 26 -3 39 1 33 11 -3 6 1
10 9 10 9 0 15 -5 13 -11 -1 -6 4 -13 11 -15 7 -1 8 0 2 3 -7 3 -7 10 2 21 11
13 11 14 -1 8 -9 -6 -12 -4 -9 5 3 8 10 14 15 14 20 0 23 11 3 12 -10 1 -21
-5 -24 -13 -3 -8 -11 -14 -17 -14 -9 0 -9 4 0 14 8 10 9 16 1 21 -5 3 -10 11
-10 16 0 6 5 7 12 3 7 -4 25 -8 40 -9 24 -1 26 1 16 19 -6 12 -16 24 -22 28
-8 6 -8 8 1 8 6 0 11 9 10 19 0 11 -5 17 -9 15 -4 -3 -8 0 -8 6 0 6 8 10 17 8
12 -2 18 -14 19 -36 1 -18 5 -36 9 -40 5 -4 6 0 2 9 -3 9 0 22 6 28 8 8 7 11
-4 11 -11 1 -11 2 2 10 9 5 15 19 14 32 -1 13 3 27 9 31 7 6 6 7 -4 4 -8 -2
-14 -10 -13 -16 2 -6 -2 -11 -7 -11 -6 0 -10 6 -10 13 0 20 21 36 39 30 13 -4
13 -3 2 5 -11 8 -10 12 5 21 17 9 17 10 2 11 -10 0 -18 5 -18 10 0 6 6 10 14
10 8 0 18 4 21 10 3 5 0 7 -8 4 -8 -3 -20 2 -27 11 -12 14 -11 16 11 12 13 -2
18 -2 11 0 -9 3 -7 9 6 21 9 9 13 14 8 9 -16 -11 -26 -8 -26 8 0 8 3 14 8 14
20 -3 33 2 27 11 -4 6 -1 19 7 28 12 15 11 16 -4 3 -11 -8 -18 -9 -18 -3 0 6
8 16 18 21 16 10 16 10 0 11 -10 0 -18 -5 -18 -11 0 -6 -7 -3 -16 5 -8 9 -20
14 -25 11 -13 -9 -11 2 7 36 14 28 14 33 -5 65 -23 39 -26 54 -11 54 5 0 9 -5
7 -12 -1 -7 9 -12 24 -12 22 1 26 -3 26 -27 0 -23 -3 -26 -14 -18 -7 6 -10 15
-7 20 3 5 0 9 -5 9 -16 0 -14 -11 6 -32 15 -17 15 -19 -2 -38 -21 -23 -17 -30
19 -34 15 -2 24 -1 21 2 -2 3 1 12 8 20 9 13 9 14 0 8 -18 -10 -16 4 5 28 17
21 17 21 -5 2 -27 -22 -31 -11 -6 16 16 18 16 18 0 12 -10 -3 -17 -1 -17 5 0
6 8 11 17 11 14 0 13 3 -5 16 -12 8 -22 21 -21 27 3 26 -2 38 -12 31 -8 -4 -7
-9 2 -15 11 -7 11 -9 1 -9 -7 0 -10 -4 -7 -10 3 -5 2 -10 -4 -10 -5 0 -13 5
-16 10 -3 5 -1 10 5 10 6 0 8 5 4 12 -4 6 1 17 12 25 16 12 20 11 29 -6 9 -17
13 -18 28 -6 12 8 14 15 8 20 -6 3 -11 1 -11 -4 0 -6 -4 -11 -9 -11 -5 0 -8
11 -7 25 1 28 6 31 25 13 11 -11 12 -10 5 2 -12 20 -11 43 1 52 6 5 5 8 -2 8
-7 0 -13 6 -13 13 0 7 -9 18 -21 25 -12 7 -18 16 -15 19 3 3 12 1 19 -6 20
-16 45 13 28 33 -7 8 -8 16 -4 18 4 3 2 3 -5 1 -8 -1 -12 3 -9 9 2 7 10 12 16
11 6 -2 11 2 11 8 0 6 -7 9 -15 5 -21 -8 -19 11 2 23 10 5 14 13 9 18 -5 4
-11 2 -13 -5 -4 -10 -8 -10 -19 -1 -15 13 -20 34 -5 25 11 -7 41 3 41 13 0 4
-7 8 -15 8 -8 0 -12 -4 -9 -9 3 -4 0 -8 -7 -8 -6 0 -9 8 -6 19 3 15 1 18 -12
14 -13 -4 -13 -2 2 10 14 12 15 16 4 20 -8 3 -20 1 -27 -3 -8 -5 -18 -6 -23
-3 -16 10 36 32 53 23 9 -5 22 -5 29 -1 10 6 9 10 -4 15 -9 3 -13 11 -10 16 4
6 1 18 -6 26 -9 12 -8 19 7 36 11 12 14 18 7 15 -6 -4 -20 4 -31 18 -11 13
-22 21 -26 18 -3 -3 -6 -1 -6 5 0 5 5 12 11 14 14 5 21 58 7 58 -5 0 -7 -8 -3
-19 3 -10 0 -23 -8 -29 -10 -9 -13 -3 -13 27 0 32 3 38 20 37 12 -1 22 3 23 8
1 5 7 13 15 18 9 7 8 8 -6 4 -13 -5 -17 -2 -12 9 7 20 -3 47 -16 39 -6 -4 -5
-10 3 -15 12 -8 12 -11 -1 -18 -8 -5 -18 -7 -22 -5 -7 5 -12 -10 -9 -28 0 -5
-4 -8 -10 -8 -8 0 -8 -4 0 -14 7 -9 8 -17 2 -20 -5 -3 -12 0 -15 6 -3 7 -3 2
0 -11 4 -15 2 -21 -4 -17 -6 4 -16 -2 -22 -13 -9 -17 -8 -20 6 -14 11 4 15 3
10 -5 -3 -6 -1 -14 5 -18 7 -4 9 -3 6 3 -4 6 0 13 8 17 17 6 19 -2 5 -24 -8
-13 -13 -13 -31 -2 -11 8 -18 9 -15 4 3 -6 3 -12 -1 -15 -5 -2 -3 -2 4 -1 6 2
11 -6 10 -16 -1 -15 -4 -17 -16 -7 -10 8 -9 3 3 -15 15 -22 22 -26 36 -18 25
14 30 13 24 -5 -4 -8 -11 -12 -17 -8 -6 4 -7 1 -2 -7 6 -10 4 -12 -11 -6 -10
4 -26 9 -34 10 -19 4 -21 105 -2 124 7 8 10 17 7 22 -3 5 -2 10 3 12 4 1 23
30 41 63 19 33 41 65 50 72 9 7 12 13 8 13 -4 0 22 56 57 124 92 176 169 355
231 541 29 88 57 174 61 190 4 17 8 35 10 40 2 6 5 20 8 33 3 13 8 32 11 43 4
10 8 31 10 47 2 15 4 27 5 27 1 0 4 14 14 65 2 14 5 27 6 30 2 3 2 8 1 12 0 4
3 29 9 55 9 48 15 99 27 228 13 135 5 495 -13 585 -3 14 -7 36 -9 50 -2 14 -6
45 -9 69 -3 23 -8 46 -11 51 -2 4 -7 22 -9 41 -11 80 -90 335 -131 426 -8 17
-15 33 -15 36 0 8 -93 201 -100 207 -3 3 -16 25 -29 50 -13 25 -37 64 -53 87
-15 23 -28 46 -28 51 0 6 -4 12 -8 14 -5 2 -23 25 -41 52 -173 253 -530 573
-801 717 -25 13 -47 27 -50 30 -30 38 -559 251 -655 264 -11 2 -45 10 -75 19
-30 8 -68 18 -85 21 -38 7 -84 16 -110 20 -11 2 -21 4 -22 5 -5 4 -15 6 -78
14 -33 4 -76 10 -95 13 -58 8 -91 11 -169 18 -40 3 -77 8 -82 10 -4 3 -10 1
-14 -5 -4 -6 -12 -7 -18 -3 -9 6 -303 13 -310 7z m2563 -4379 c11 -13 9 -15
-11 -11 -13 3 -26 5 -29 5 -4 1 21 20 26 21 1 0 7 -7 14 -15z m-46 -79 c-7
-19 -20 -21 -30 -4 -4 7 -3 8 5 4 6 -4 14 0 17 9 4 9 8 14 10 12 3 -2 2 -12
-2 -21z m40 -59 c19 -18 22 -27 14 -35 -8 -8 -8 -15 2 -27 7 -8 10 -18 7 -22
-4 -3 -1 -13 6 -21 10 -13 9 -14 -8 -5 -15 8 -27 8 -45 -3 -28 -15 -53 -19
-30 -4 13 9 13 10 0 11 -8 1 -19 3 -25 4 -5 2 -17 3 -25 4 -13 1 -13 3 -1 10
9 6 22 6 32 0 22 -11 49 -2 49 18 0 8 5 11 10 8 8 -5 7 -11 -1 -21 -8 -10 -8
-14 0 -14 6 0 11 5 11 11 0 5 5 7 11 4 6 -4 5 2 -3 14 -7 12 -17 21 -22 21 -6
0 -1 7 10 15 12 10 4 9 -22 -4 l-41 -20 2 21 c1 11 11 26 24 32 12 7 18 15 15
19 -19 19 8 4 30 -16z m-67 -117 c-1 -5 6 -15 16 -22 18 -13 17 -14 -2 -14
-11 0 -17 4 -15 8 3 4 1 8 -4 8 -20 0 -19 -13 4 -35 28 -28 31 -42 9 -42 -9 0
-14 6 -11 13 2 6 -8 22 -22 35 -23 20 -25 24 -9 27 9 2 15 8 11 13 -3 5 -10 6
-16 3 -6 -4 -8 -3 -5 2 7 12 47 16 44 4z m65 -32 c-9 -9 -9 -15 0 -25 8 -10 8
-17 1 -24 -8 -8 -13 -7 -18 2 -6 8 -4 10 6 4 11 -6 12 -5 2 5 -7 8 -16 10 -20
6 -4 -4 6 -20 23 -34 21 -19 30 -35 28 -52 -1 -14 5 -33 13 -42 19 -21 8 -44
-13 -27 -10 8 -18 9 -25 2 -6 -6 -1 -19 16 -37 14 -16 23 -31 20 -34 -4 -4
-14 4 -24 17 -12 16 -21 20 -25 12 -5 -7 -13 -8 -24 -2 -9 4 -22 7 -27 5 -6
-3 -11 5 -12 17 -1 14 2 18 10 11 22 -17 46 -21 53 -10 4 6 3 8 -3 5 -6 -4
-14 0 -17 9 -4 11 -2 15 8 11 20 -8 27 3 15 24 -6 13 -6 19 0 19 6 0 15 -9 21
-20 6 -11 16 -20 22 -20 6 0 -3 14 -20 30 -18 17 -28 30 -23 30 19 0 20 30 1
40 -16 9 -18 7 -14 -15 4 -23 3 -24 -15 -13 -16 10 -17 14 -5 25 18 18 18 23
-3 53 -15 21 -15 23 -1 17 9 -3 24 1 35 8 22 18 31 19 15 3z m-77 -53 c0 -12
6 -19 14 -17 11 2 12 0 3 -11 -10 -12 -7 -18 14 -32 14 -9 23 -19 20 -22 -3
-3 -12 -1 -19 5 -8 7 -18 8 -22 4 -5 -4 -5 -1 -1 6 9 14 -3 16 -24 2 -13 -8
-13 -10 2 -10 9 0 24 -10 32 -22 9 -12 16 -17 16 -10 0 17 17 15 24 -4 3 -8 2
-13 -3 -9 -5 3 -17 2 -26 -1 -13 -6 -14 -9 -3 -16 10 -8 10 -9 -2 -5 -8 2 -15
10 -15 18 -1 20 -14 39 -28 39 -8 0 -8 -3 -2 -8 15 -10 18 -42 4 -42 -8 0 -8
-4 1 -15 7 -8 9 -15 6 -15 -17 0 14 -34 32 -35 12 -1 19 2 16 7 -3 4 2 5 10 2
9 -3 16 -1 16 4 0 6 11 0 25 -14 29 -29 31 -34 9 -34 -11 0 -14 -6 -8 -22 6
-20 4 -20 -16 5 -12 15 -19 31 -16 35 4 3 11 0 15 -7 5 -8 11 -9 15 -3 8 14
-25 25 -37 13 -7 -7 -6 -15 1 -24 7 -8 8 -18 4 -22 -4 -5 -1 -5 6 -1 6 4 12 2
12 -3 0 -6 -7 -11 -15 -11 -8 0 -17 -11 -21 -25 -3 -14 -10 -25 -15 -25 -4 0
-13 -9 -20 -21 -8 -16 -8 -24 2 -33 9 -8 10 -8 5 2 -4 6 -5 12 -2 12 3 0 10
-10 17 -22 10 -19 9 -20 -7 -13 -11 4 -24 8 -31 8 -14 0 -13 37 2 37 5 0 4 4
-3 9 -8 4 -13 12 -12 17 1 5 -4 10 -11 13 -8 2 -10 -2 -6 -13 5 -12 3 -15 -6
-10 -6 4 -3 -2 7 -14 12 -14 14 -22 7 -22 -7 0 -10 -4 -6 -9 3 -6 -3 -14 -12
-20 -10 -6 -13 -11 -7 -11 5 0 15 5 21 11 9 9 12 7 10 -9 -1 -21 -22 -36 -36
-27 -4 2 -8 -2 -8 -9 0 -8 6 -12 14 -9 7 3 13 1 13 -4 0 -5 -9 -9 -20 -10 -19
-2 -23 17 -9 42 4 6 5 18 4 27 -2 12 2 15 13 10 14 -4 15 -3 6 9 -9 11 -12 77
-4 87 2 1 3 7 4 12 0 6 5 10 9 9 5 0 15 8 23 18 10 13 14 14 12 3 -2 -8 -12
-23 -23 -33 -11 -10 -15 -16 -8 -13 6 4 18 -3 26 -15 l15 -21 11 21 c7 12 8
21 4 21 -4 0 -1 5 9 10 9 6 15 18 13 28 -2 9 -4 23 -4 31 -1 8 -7 11 -16 7 -9
-3 -18 0 -21 8 -3 7 -12 13 -22 13 -15 0 -15 -1 0 -11 15 -9 15 -11 0 -24 -12
-9 -12 -11 -2 -6 12 6 13 4 3 -7 -10 -10 -16 -10 -25 -1 -8 8 -8 12 -1 12 5 0
10 12 9 28 -1 16 4 26 11 25 7 -2 10 4 7 12 -4 8 -11 12 -17 8 -6 -3 -7 -1 -3
6 4 6 9 23 12 37 3 19 1 24 -8 18 -10 -6 -10 -4 -2 7 6 8 10 38 9 67 -2 44 1
52 14 50 9 -2 16 -12 16 -23z m19 -237 c-3 -4 0 -8 5 -8 18 0 7 -24 -14 -33
-15 -6 -16 -10 -6 -16 8 -5 9 -11 3 -15 -5 -3 -15 0 -21 8 -9 10 -8 15 3 19 9
4 13 15 11 30 -3 16 0 24 10 24 8 0 12 -4 9 -9z m26 -190 c0 -8 -20 -12 -48
-11 -7 1 -11 -1 -8 -4 3 -3 -4 -15 -15 -26 -14 -16 -16 -23 -7 -29 7 -4 9 -8
4 -8 -5 0 -3 -7 4 -15 15 -18 1 -19 -20 -2 -19 16 -25 48 -8 45 7 -2 12 5 12
14 -1 10 2 15 7 12 8 -5 13 9 10 29 0 4 4 7 10 7 5 0 8 4 5 9 -4 5 7 4 24 -2
16 -6 30 -15 30 -19z m37 -40 c-18 -11 -29 2 -16 18 10 12 14 12 20 2 4 -7 3
-16 -4 -20z m-57 2 c-7 -14 -8 -26 -1 -39 8 -14 7 -20 -3 -24 -11 -4 -14 3
-11 29 1 19 0 32 -4 28 -3 -3 -6 -14 -6 -25 0 -27 -17 -28 -21 -2 -3 14 4 28
18 38 30 21 41 19 28 -5z m-95 -40 c-3 -5 4 -14 15 -20 11 -6 18 -15 15 -21
-9 -14 -25 -11 -25 5 0 8 -5 18 -11 21 -6 4 -9 0 -7 -10 2 -10 -3 -20 -10 -22
-10 -4 -11 2 -6 24 9 37 14 44 25 37 5 -3 7 -9 4 -14z m145 -44 c0 -6 -9 -12
-19 -13 -11 -1 -19 4 -17 10 1 7 1 9 -1 5 -6 -11 -23 -10 -23 0 0 5 10 14 23
20 12 6 16 11 10 11 -7 1 -13 7 -13 14 1 15 40 -31 40 -47z m-75 5 c-3 -5 4
-12 15 -16 28 -9 44 -41 24 -49 -9 -4 -12 -11 -7 -18 13 -21 11 -62 -5 -80
-23 -27 -28 -22 -29 33 0 35 3 47 10 40 6 -6 15 -11 20 -11 5 0 -1 9 -14 21
-17 14 -19 19 -7 15 10 -3 20 0 24 6 4 7 3 8 -4 4 -7 -4 -12 -2 -12 4 0 6 -4
9 -9 5 -5 -3 -13 -1 -16 5 -5 8 -11 7 -21 -1 -8 -7 -14 -7 -14 -1 0 5 -6 12
-14 15 -9 4 -12 -2 -10 -19 1 -16 -2 -24 -9 -21 -7 2 -11 11 -9 21 2 9 -2 16
-7 16 -5 0 -8 -9 -6 -20 2 -11 0 -18 -5 -15 -5 3 -7 -3 -5 -15 2 -11 0 -22 -6
-25 -5 -4 -9 -12 -9 -18 0 -8 3 -8 9 2 5 8 11 9 15 3 3 -6 2 -13 -3 -17 -6 -3
-8 -13 -5 -23 3 -9 -1 -7 -8 6 -8 12 -17 20 -20 16 -4 -3 -4 3 -1 15 3 12 9
21 14 21 5 0 6 7 3 15 -4 8 -1 21 5 29 6 7 8 15 5 19 -9 8 33 28 48 22 7 -3
22 1 33 9 23 17 39 21 30 7z m-22 -66 c-17 -13 -17 -14 2 -29 15 -12 17 -25 2
-13 -2 1 -11 -4 -21 -12 -9 -8 -19 -11 -23 -7 -4 3 1 12 10 19 16 11 15 12 -7
13 -19 1 -23 -3 -22 -21 0 -13 4 -21 8 -19 4 3 6 -5 5 -16 -1 -19 -25 -36 -35
-25 -3 3 0 5 8 5 10 0 10 3 1 14 -9 10 -9 16 -1 21 6 4 7 12 2 18 -15 21 -8
40 15 42 12 1 20 -2 17 -7 -3 -4 0 -8 5 -8 12 0 15 26 4 33 -5 2 -3 2 4 1 7
-2 15 1 18 7 4 5 11 7 16 3 6 -3 3 -12 -8 -19z m9 -69 c7 4 8 2 4 -5 -4 -6
-13 -9 -19 -5 -7 3 -4 -1 7 -10 18 -14 18 -15 -3 -13 -11 1 -21 5 -21 10 0 4
-6 5 -12 1 -7 -4 -4 3 7 15 11 12 21 18 23 12 2 -6 9 -8 14 -5z m-122 -31 c-7
-8 -9 -15 -6 -15 4 0 2 -8 -3 -18 -7 -13 -7 -22 0 -29 7 -7 1 -16 -16 -27 -21
-14 -24 -20 -14 -32 6 -8 9 -18 5 -21 -4 -4 -12 -1 -17 7 -9 13 -10 13 -6 0 2
-8 -3 -21 -12 -28 -14 -10 -13 -11 4 -5 18 6 18 5 6 -10 -7 -9 -17 -15 -21
-12 -4 3 -11 -2 -14 -10 -5 -13 -2 -14 17 -5 21 11 21 11 3 -4 -11 -9 -24 -16
-29 -16 -4 0 -5 -5 -1 -11 5 -8 9 -8 14 1 5 9 9 9 14 1 7 -10 -6 -16 -27 -12
-5 1 -6 -9 -2 -21 5 -19 4 -20 -5 -8 -9 12 -10 11 -5 -7 5 -18 3 -21 -15 -18
-17 3 -19 1 -10 -15 9 -16 8 -19 -7 -13 -14 5 -15 3 -7 -6 9 -10 17 -10 32 -2
26 14 29 14 29 -3 0 -10 -12 -13 -44 -11 -47 2 -51 -1 -25 -21 15 -12 13 -13
-18 -9 -25 4 -31 2 -20 -4 8 -6 11 -13 7 -18 -5 -4 -12 -1 -17 7 -7 10 -5 19
5 26 8 6 15 16 15 23 0 6 5 11 11 11 5 0 8 4 5 9 -3 5 1 14 9 21 8 7 15 19 15
26 0 8 9 19 19 26 10 6 17 17 14 24 -2 6 1 15 6 19 6 3 9 11 6 16 -4 5 -2 9 3
9 10 0 42 61 46 85 1 7 8 20 15 29 7 8 9 21 5 27 -5 8 -3 9 6 4 10 -6 12 -4 7
8 -3 9 -2 19 4 22 5 4 7 11 4 16 -4 5 1 9 11 9 13 0 14 -3 4 -15z m27 -16 c8
-8 17 -7 34 2 18 9 24 9 27 -1 4 -10 6 -10 12 0 6 10 16 4 39 -20 17 -19 28
-36 25 -39 -3 -3 -11 2 -18 11 -11 15 -15 16 -32 4 -14 -11 -16 -17 -6 -28 9
-11 9 -17 0 -26 -11 -11 -38 -17 -38 -8 0 2 -3 12 -6 20 -5 12 -2 15 10 10 9
-3 13 -11 9 -17 -3 -6 -1 -7 5 -3 6 4 9 13 6 21 -4 8 -10 13 -14 10 -5 -3 -11
-1 -15 4 -3 6 -13 8 -23 5 -14 -5 -15 -4 -2 5 8 6 22 9 30 6 8 -2 26 4 39 14
17 13 19 18 7 18 -9 0 -16 -5 -16 -11 0 -5 -7 -1 -15 10 -9 10 -14 13 -13 5 2
-7 -3 -16 -11 -19 -10 -3 -11 0 -5 9 6 12 5 12 -8 1 -13 -10 -17 -10 -22 0 -3
7 -3 3 0 -9 3 -15 1 -21 -10 -19 -19 3 -34 16 -18 16 6 0 9 9 7 20 -4 22 5 26
22 9z m20 -68 c7 7 10 3 8 -14 -2 -18 4 -28 21 -36 17 -8 24 -8 24 0 0 8 5 7
15 -1 8 -7 15 -17 15 -22 0 -6 -7 -5 -15 2 -12 10 -15 10 -15 0 0 -9 -3 -10
-13 -1 -9 7 -17 7 -24 0 -7 -7 -14 -4 -24 7 -12 15 -11 16 11 11 22 -6 22 -5
-2 5 -30 13 -39 31 -10 22 14 -5 15 -4 2 5 -11 8 -18 7 -27 -5 -7 -9 -17 -13
-24 -8 -8 5 -10 3 -4 -7 8 -12 6 -12 -8 0 -20 16 -13 33 11 24 9 -3 14 -3 10
2 -4 4 -2 15 4 22 10 13 13 13 23 -1 8 -10 15 -12 22 -5z m-30 -48 c-4 -3 6
-16 22 -27 30 -23 39 -41 19 -41 -7 0 -13 7 -13 15 0 9 -8 14 -19 12 -12 -2
-16 1 -10 9 4 8 3 10 -4 5 -7 -4 -12 -2 -12 5 0 7 -3 9 -6 6 -4 -4 -1 -14 7
-24 12 -15 12 -16 -3 -11 -9 4 -23 -1 -34 -13 -12 -14 -14 -19 -4 -19 8 0 3
-11 -13 -28 -15 -16 -24 -31 -20 -35 3 -4 0 -7 -8 -7 -10 -1 -8 -4 4 -11 24
-14 34 -4 17 16 -7 8 -8 15 -2 15 17 0 34 -27 22 -35 -8 -5 -8 -11 -1 -19 6
-7 8 -16 5 -19 -3 -3 -3 -11 1 -17 5 -8 11 -8 21 1 11 9 17 9 25 1 5 -7 6 -10
3 -7 -4 3 -13 0 -19 -5 -14 -12 -61 2 -58 16 1 5 -6 8 -15 7 -10 -1 -11 0 -4
3 6 3 12 13 12 22 0 15 -2 15 -10 2 -8 -13 -10 -12 -11 5 -2 34 2 50 17 58 8
5 12 12 9 18 -4 5 -3 15 2 22 4 6 8 17 8 22 1 6 6 9 12 8 6 -1 14 4 17 12 3
10 0 12 -12 9 -9 -3 -1 4 18 15 37 21 48 26 37 14z m17 -57 c-3 -9 3 -17 15
-21 11 -3 18 -11 15 -18 -6 -17 -51 -18 -51 -1 0 10 7 12 21 9 21 -6 21 -6 1
6 -30 18 -31 19 -15 29 20 13 20 12 14 -4z m-28 -32 c2 -9 -3 -14 -11 -10 -23
8 -25 -6 -5 -35 15 -20 17 -29 8 -33 -7 -3 -3 -3 9 -1 23 6 40 -9 23 -20 -5
-3 -10 -2 -10 3 0 6 -6 9 -12 8 -7 0 -15 4 -17 9 -3 6 -14 17 -25 27 -20 15
-20 17 -3 35 9 11 14 22 11 26 -3 3 -3 11 1 17 9 14 28 -1 31 -26z m39 -59
c22 -24 30 -58 11 -52 -6 2 -11 8 -11 13 -1 14 -21 46 -28 45 -4 -1 -6 1 -4 4
1 2 -7 11 -18 20 -19 15 -19 16 5 4 14 -7 34 -22 45 -34z m-151 -37 c-3 -4 -9
-8 -15 -8 -5 0 -9 4 -9 8 0 5 7 9 15 9 8 0 12 -4 9 -9z m41 -49 c-3 -16 0 -19
14 -14 26 8 64 -25 55 -48 -6 -17 -8 -17 -25 -1 -11 9 -19 13 -19 8 0 -5 -5
-1 -11 8 -5 10 -16 15 -25 11 -15 -6 -16 17 -1 28 4 3 -7 6 -25 6 -18 0 -27
-2 -20 -5 6 -2 10 -8 7 -13 -4 -5 0 -6 8 -3 8 3 14 -2 14 -11 0 -9 -6 -14 -13
-11 -6 2 -21 -4 -32 -14 -11 -10 -23 -16 -26 -13 -3 4 3 12 14 20 11 8 20 19
20 25 0 7 -7 3 -16 -8 -15 -18 -15 -18 -5 2 7 14 7 24 0 31 -7 7 1 9 24 8 19
-2 40 1 48 6 19 12 18 12 14 -12z m-105 -49 c-13 -24 -13 -27 5 -34 8 -3 23 4
33 15 18 19 20 19 33 2 7 -10 10 -15 5 -11 -15 13 -46 -11 -39 -30 6 -14 4
-15 -8 -5 -12 10 -18 10 -29 0 -10 -10 -12 -9 -7 5 3 10 1 20 -5 24 -6 4 -8 3
-4 -4 7 -11 -12 -11 -31 1 -7 5 -13 4 -13 -2 0 -5 -8 -8 -18 -6 -11 2 -19 -3
-19 -11 0 -8 4 -14 9 -14 4 0 8 5 8 11 0 5 5 7 12 3 9 -6 9 -9 0 -12 -9 -3
-10 -8 -2 -17 8 -10 3 -12 -24 -10 -22 1 -33 -2 -29 -8 4 -6 1 -7 -7 -2 -9 6
-11 4 -5 -6 7 -12 6 -12 -7 -1 -13 10 -18 10 -24 1 -4 -7 -3 -10 2 -6 5 3 17
-1 27 -8 12 -8 14 -15 8 -20 -6 -3 -11 -2 -11 2 0 12 -38 14 -45 3 -3 -5 3 -9
12 -9 48 -2 53 -4 47 -25 -6 -19 -5 -20 7 -4 9 12 19 15 28 9 9 -6 10 -11 2
-15 -6 -4 -11 -2 -11 5 0 7 -3 10 -6 7 -3 -4 0 -16 6 -28 9 -17 14 -19 25 -10
11 9 14 7 12 -9 -1 -15 -6 -20 -17 -15 -8 4 -23 6 -33 6 -16 -1 -17 1 -5 15 9
12 10 15 0 9 -8 -5 -15 1 -21 17 -6 14 -15 28 -22 33 -8 5 -9 3 -4 -6 5 -8 4
-11 -3 -6 -6 3 -15 -1 -20 -10 -11 -19 -22 -20 -34 -2 -6 9 -7 6 -3 -9 4 -14
2 -23 -5 -23 -6 0 -8 5 -4 12 4 7 3 8 -4 4 -9 -5 -9 -13 -1 -28 11 -20 11 -20
-14 -2 -22 17 -23 20 -9 28 10 5 20 15 25 22 4 7 15 10 25 7 9 -3 14 -3 10 2
-10 10 41 75 59 75 8 0 12 4 9 9 -4 5 7 20 23 34 17 14 27 28 23 32 -4 4 0 5
8 3 10 -2 14 3 12 15 -3 20 9 22 27 5 11 -11 15 -10 24 4 15 22 30 12 17 -12z
m104 -52 c-1 -49 1 -58 9 -40 6 12 14 22 19 22 11 0 10 -8 -2 -23 -6 -7 -20
-25 -31 -40 -16 -21 -26 -26 -43 -21 -11 4 -29 7 -39 6 -9 0 -15 3 -12 8 6 10
33 9 51 -3 14 -8 10 43 -3 52 -11 7 -12 51 -1 45 4 -3 8 0 8 5 0 6 6 10 13 9
6 -2 11 3 9 11 -2 11 7 23 23 31 0 0 0 -28 -1 -62z m-147 -11 c-3 -8 1 -14 8
-14 7 0 11 7 8 16 -4 13 -3 13 5 2 5 -7 7 -22 4 -33 -4 -15 -7 -17 -13 -6 -7
10 -9 10 -10 1 -1 -7 -3 -17 -4 -23 -1 -5 -3 -15 -4 -22 -1 -13 -16 -1 -16 13
0 5 -4 9 -10 9 -5 0 -10 -8 -10 -17 1 -10 6 -17 13 -15 11 2 16 -11 13 -31 -1
-5 3 -6 9 -2 6 3 7 11 4 17 -5 7 -2 8 5 4 7 -5 10 -14 7 -22 -3 -7 0 -16 6
-20 7 -5 8 -2 3 5 -6 10 -3 11 13 2 24 -13 38 -31 23 -31 -5 0 -13 5 -16 10
-11 17 -25 0 -21 -23 2 -13 -5 -33 -17 -47 -20 -24 -20 -25 -14 -3 3 13 0 26
-5 30 -6 3 -8 1 -5 -4 4 -6 0 -14 -9 -17 -12 -4 -14 -1 -9 14 5 16 2 19 -12
17 -10 -1 -23 -6 -29 -10 -15 -9 -38 19 -28 34 5 8 3 9 -6 4 -9 -6 -11 -4 -6
6 4 8 0 5 -9 -6 -9 -11 -20 -20 -26 -20 -5 0 -14 -7 -19 -15 -7 -11 -8 -9 -6
10 2 27 25 73 26 53 0 -7 5 -13 11 -13 5 0 8 4 5 8 -2 4 -1 14 5 22 7 13 9 13
9 0 0 -13 1 -13 11 0 8 12 9 10 4 -8 -5 -16 -3 -22 7 -20 8 2 13 -6 12 -19 -1
-24 10 -31 21 -13 4 7 12 7 25 0 27 -14 43 -12 37 5 -4 8 -1 17 5 21 7 4 6 9
-3 15 -8 4 -19 3 -28 -4 -12 -10 -13 -9 -3 9 12 23 0 43 -27 45 -12 0 -13 2
-2 6 10 4 11 7 1 13 -21 13 -2 28 29 24 28 -3 30 -2 26 26 -2 17 1 30 7 30 5
0 8 -6 5 -13z m90 -59 c-6 -4 -14 -3 -17 3 -4 5 -14 1 -24 -10 -17 -19 -7 -39
13 -27 5 3 11 -1 15 -9 6 -17 -10 -30 -19 -15 -5 8 -11 8 -19 1 -9 -8 -16 -5
-24 12 -12 25 -13 59 -1 51 5 -2 16 10 25 27 l16 32 23 -29 c16 -20 20 -31 12
-36z m-342 -98 c-4 -6 3 -9 16 -7 30 3 56 -44 39 -70 -9 -15 -10 -14 -4 6 5
19 3 23 -9 18 -23 -9 -29 4 -9 20 16 12 16 13 -3 7 -17 -5 -18 -4 -5 6 13 10
13 11 0 7 -8 -2 -16 -9 -16 -15 -1 -7 -2 -15 -3 -19 0 -4 -8 2 -17 13 -8 10
-12 13 -8 5 5 -10 3 -12 -6 -6 -9 6 -11 4 -5 -5 5 -8 4 -11 -3 -6 -6 3 -13 2
-17 -3 -3 -6 6 -8 22 -5 l28 4 -25 -14 c-13 -8 -32 -12 -42 -11 -10 2 -18 -2
-18 -8 0 -7 -5 -4 -11 6 -14 24 -4 33 18 16 15 -12 16 -12 10 4 -4 11 -1 17 9
17 9 0 12 5 8 12 -4 6 -3 8 3 5 6 -4 18 2 28 13 19 21 30 27 20 10z m139 -39
c13 -14 14 -21 5 -27 -8 -4 -10 -3 -5 4 5 8 2 10 -9 6 -11 -5 -14 -2 -9 12 5
16 4 16 -5 4 -6 -8 -11 -10 -11 -4 0 9 9 24 15 24 1 0 10 -9 19 -19z m-14 -31
c14 -7 23 -6 36 7 17 18 48 28 39 13 -3 -4 -2 -16 1 -25 5 -13 8 -14 15 -3 6
9 9 9 9 1 0 -19 -20 -26 -35 -13 -8 7 -16 9 -17 4 0 -5 -2 -13 -2 -19 -1 -5
-8 -20 -14 -33 -12 -20 -15 -21 -40 -9 -24 12 -29 12 -44 -4 -9 -10 -14 -20
-10 -22 4 -2 1 -2 -6 0 -23 6 -34 -8 -20 -25 10 -13 8 -13 -9 1 -21 18 -22 18
-33 -2 -6 -12 -8 -26 -5 -31 5 -9 -27 -6 -43 4 -5 3 -16 -4 -25 -15 -17 -19
-37 -18 -37 2 0 6 4 8 9 5 4 -3 17 1 27 9 14 10 15 14 5 15 -18 0 -6 13 15 16
10 2 14 -3 10 -13 -5 -12 -4 -13 7 -5 8 7 18 8 22 4 5 -4 5 -1 1 6 -4 6 -3 12
3 12 5 0 13 10 16 21 5 16 9 18 15 9 4 -7 13 -9 19 -6 6 4 8 12 5 18 -4 6 2 8
17 3 14 -3 19 -3 12 2 -8 6 -9 14 -3 23 8 13 10 13 10 1 0 -8 3 -12 6 -8 3 3
1 14 -5 24 -10 17 -11 17 -17 -4 -3 -13 -11 -23 -16 -23 -5 0 -7 4 -3 9 3 5 1
12 -4 15 -5 4 -13 1 -17 -5 -3 -6 0 -15 7 -20 8 -5 12 -9 9 -10 -3 0 -13 -2
-22 -4 -22 -4 -22 -2 -3 35 14 28 14 29 -8 24 -12 -3 -28 -6 -34 -6 -12 -1
-17 -12 -14 -30 2 -15 -17 -8 -23 8 -3 8 -10 12 -16 9 -5 -3 -16 -3 -22 2 -20
12 -38 12 -35 1 1 -6 -4 -13 -12 -16 -10 -3 -11 0 -5 9 5 9 -1 8 -19 -4 -15
-10 -27 -13 -27 -7 0 6 -5 8 -11 4 -8 -5 -8 -9 1 -14 9 -5 9 -9 1 -14 -6 -4
-11 -2 -11 3 0 6 -5 11 -11 11 -5 0 -7 -5 -3 -12 5 -7 3 -8 -6 -3 -8 5 -11 4
-6 -3 4 -7 -2 -9 -20 -6 -16 3 -23 1 -19 -6 3 -5 2 -10 -4 -10 -5 0 -13 5 -16
10 -3 6 -1 10 5 10 6 0 8 5 5 10 -3 6 -1 11 4 11 6 1 19 2 29 3 9 1 28 8 42
16 14 7 26 13 28 12 8 -6 32 0 28 7 -3 5 0 9 7 8 34 -1 48 4 41 15 -4 7 -3 8
4 4 7 -4 12 -14 12 -23 0 -11 5 -13 18 -8 9 4 27 8 40 8 12 1 22 5 22 10 0 4
4 6 9 3 5 -3 12 1 15 10 5 12 10 14 20 5 7 -6 16 -8 20 -4 4 4 4 0 1 -9 -13
-33 15 -28 32 7 13 28 19 32 25 20 5 -8 17 -19 28 -25z m-1346 1 c3 -5 -1 -14
-8 -20 -12 -10 -13 -8 -9 8 6 23 9 25 17 12z m1219 -42 c-4 -15 -9 -17 -17 -9
-8 8 -7 13 4 20 8 5 16 10 17 10 0 0 -1 -9 -4 -21z m-86 -6 c3 4 11 -1 18 -10
12 -16 40 -9 30 8 -14 22 4 7 20 -17 13 -20 14 -28 4 -40 -16 -19 -28 -18 -24
4 2 9 4 19 4 22 1 3 6 -2 11 -10 6 -9 10 -10 10 -3 0 17 -17 25 -25 13 -5 -8
-13 -5 -26 6 -15 13 -22 15 -31 6 -16 -16 -33 -15 -19 1 8 10 7 14 -4 14 -7 0
-13 -5 -12 -11 1 -6 -4 -10 -10 -8 -7 1 -18 3 -25 5 -7 1 -12 -3 -13 -10 0 -6
-4 -15 -9 -20 -5 -5 -6 -3 -2 5 4 6 3 12 -2 12 -17 0 -21 -13 -7 -24 9 -6 11
-16 7 -23 -6 -10 -12 -10 -28 2 -19 15 -19 15 1 9 16 -5 17 -4 5 5 -21 15 -33
14 -27 -3 4 -10 1 -13 -9 -9 -7 3 -14 0 -14 -7 0 -6 -5 -8 -10 -5 -6 4 -7 11
-4 17 4 6 2 8 -3 5 -6 -4 -23 0 -39 8 -15 7 -31 12 -36 9 -4 -3 -8 1 -8 8 0 7
11 14 25 14 14 1 23 -2 20 -6 -3 -4 2 -13 9 -20 11 -8 20 -9 35 0 12 6 21 8
21 4 0 -3 7 -1 15 6 8 7 15 9 15 4 0 -4 11 2 23 15 13 12 31 19 39 16 8 -3 21
1 28 10 10 12 16 13 27 4 7 -7 16 -9 20 -6z m-854 -27 c9 1 17 -1 17 -6 0 -4
11 -6 25 -5 14 2 25 -1 25 -6 0 -5 10 -5 24 1 13 5 27 6 31 2 4 -4 12 -7 18
-7 7 0 12 -12 12 -27 1 -31 -5 -34 -23 -16 -14 14 -16 32 -3 23 5 -3 12 -2 15
3 2 4 -6 8 -20 8 -31 0 -30 -7 3 -40 20 -20 28 -24 35 -14 6 11 10 10 17 -1 6
-9 11 -10 15 -2 4 6 12 11 18 11 7 0 7 -4 -1 -13 -8 -10 -7 -14 3 -14 9 0 12
8 9 21 -2 12 -5 27 -5 33 -1 15 -13 6 -13 -9 0 -6 -6 -13 -14 -16 -9 -3 -11 0
-7 7 4 7 3 18 -3 25 -9 11 -5 13 23 13 24 -1 35 -6 35 -17 2 -37 5 -49 12 -44
4 2 10 0 14 -6 4 -6 12 -5 21 5 9 8 21 15 27 15 7 0 3 -7 -7 -15 -11 -8 -16
-15 -10 -16 5 0 17 -2 27 -4 9 -2 15 1 12 5 -3 5 -1 11 5 15 5 3 10 2 10 -4 0
-18 39 -33 58 -22 13 8 14 10 2 11 -13 0 -13 1 0 10 30 19 28 -14 -2 -37 -29
-21 -55 -23 -43 -3 3 5 1 11 -4 14 -14 9 -41 -4 -41 -21 0 -8 -5 -11 -10 -8
-6 4 -8 10 -5 15 9 15 -15 22 -31 9 -12 -10 -13 -9 -8 5 4 12 0 16 -15 16 -12
0 -21 -5 -21 -10 0 -6 -11 -5 -27 3 -16 8 -39 13 -53 12 -28 -2 -70 14 -70 27
0 4 5 8 10 8 6 0 10 -5 10 -12 0 -6 3 -8 7 -5 3 4 -5 18 -20 31 -19 18 -28 21
-38 12 -9 -8 -10 -6 -5 9 6 16 5 17 -5 8 -10 -10 -9 -15 1 -28 8 -9 8 -15 2
-15 -6 0 -14 5 -17 10 -5 8 -11 8 -20 0 -16 -13 -48 31 -38 55 3 9 9 12 12 7
3 -5 14 -8 24 -6z m811 -9 c3 3 6 0 6 -7 0 -10 5 -9 18 3 16 15 20 15 40 1 12
-8 20 -20 16 -25 -3 -6 -11 -3 -18 7 -10 12 -13 13 -14 3 -4 -56 -16 -67 -31
-30 -15 36 -60 40 -56 5 1 -11 5 -26 9 -33 12 -18 -24 -54 -39 -41 -9 8 -17 6
-27 -4 -13 -12 -16 -11 -26 5 -7 10 -12 21 -12 23 0 6 23 2 38 -8 8 -4 11 -3
10 5 -2 6 3 14 11 17 8 2 11 0 8 -5 -11 -17 7 -32 21 -17 8 9 9 14 2 14 -6 0
-8 5 -4 12 5 7 3 8 -6 3 -10 -6 -12 -4 -6 11 4 10 9 26 11 34 2 8 4 17 5 20 1
3 2 9 1 13 -1 4 7 3 18 -2 10 -6 21 -7 25 -4z m-250 -8 c-5 -8 9 -12 22 -6 9
4 26 -32 19 -43 -10 -16 -23 -11 -21 8 0 10 -6 16 -16 16 -10 -1 -16 2 -13 6
3 4 -2 11 -10 14 -13 4 -13 2 -5 -14 7 -12 7 -21 0 -25 -9 -5 -14 6 -12 26 1
3 -6 6 -14 6 -13 0 -18 -10 -15 -29 0 -5 -4 -8 -10 -8 -6 0 -8 7 -5 16 6 15 4
15 -18 1 -13 -9 -27 -13 -30 -10 -4 4 6 13 21 20 20 9 22 11 6 7 -13 -3 -23
-1 -23 5 0 5 13 8 30 6 16 -2 31 -1 34 3 2 4 18 8 35 8 17 1 28 -2 25 -7z
m-138 -25 c-7 -17 20 -39 29 -24 5 8 11 8 20 0 16 -13 39 -4 30 11 -4 5 -2 9
3 9 6 0 13 -7 16 -16 6 -16 8 -16 24 0 23 20 36 21 29 1 -4 -8 -2 -17 4 -21
14 -8 41 17 35 33 -4 10 1 10 24 -2 17 -9 30 -21 30 -28 0 -7 5 -5 10 5 6 9
18 15 28 13 9 -2 21 -4 25 -4 4 -1 2 -7 -5 -15 -7 -7 -20 -12 -28 -11 -8 1
-25 -7 -37 -18 -13 -11 -23 -15 -23 -9 0 7 5 12 12 12 6 0 3 7 -8 16 -10 8
-14 13 -7 10 6 -4 14 -3 17 2 2 4 -4 8 -14 9 -11 1 -22 -2 -25 -8 -4 -5 -2 -9
3 -9 8 0 9 -19 3 -52 0 -5 -6 -8 -12 -8 -8 0 -8 4 0 14 8 10 9 16 1 21 -6 3
-7 11 -4 17 4 7 2 8 -5 4 -6 -4 -8 -12 -5 -18 4 -6 1 -8 -7 -6 -8 3 -13 11
-11 17 2 11 -10 15 -40 12 -10 -1 -18 3 -18 10 0 7 -7 4 -15 -7 -15 -19 -15
-19 -30 0 -16 21 -18 17 -17 -37 0 -15 -4 -25 -9 -21 -6 3 -8 11 -6 17 6 17
-22 69 -33 62 -6 -4 -10 -1 -10 6 0 7 -3 9 -7 6 -3 -4 -13 -1 -22 6 -14 11
-14 10 -2 -5 15 -20 2 -25 -17 -6 -7 7 -12 8 -12 4 0 -5 -7 -3 -15 4 -15 13
-35 6 -35 -13 0 -8 4 -7 9 2 8 13 12 13 27 0 9 -8 18 -12 18 -10 1 3 10 -1 21
-7 20 -12 20 -13 -1 -10 -11 2 -29 -4 -40 -12 -12 -9 -15 -9 -7 -1 6 7 9 19 6
27 -4 11 -10 10 -30 -3 -24 -16 -26 -16 -39 1 -7 10 -10 24 -7 32 4 12 8 11
20 -3 13 -15 14 -16 9 -1 -4 14 3 16 50 13 30 -1 57 1 59 5 8 13 47 -2 41 -16z
m404 -34 c0 -3 -7 -15 -15 -26 -14 -19 -14 -19 -16 1 -1 11 -1 26 0 34 2 7 -2
10 -8 6 -6 -3 -11 -2 -11 4 0 17 25 19 38 3 6 -9 12 -19 12 -22z m-650 20 c0
-5 -4 -10 -10 -10 -5 0 -10 5 -10 10 0 6 5 10 10 10 6 0 10 -4 10 -10z m240
-21 c0 -4 -10 -11 -21 -14 -17 -6 -19 -9 -8 -16 8 -5 10 -9 4 -9 -5 0 -16 4
-23 9 -11 7 -10 9 3 15 9 3 14 10 10 15 -3 6 4 9 15 8 11 -1 20 -4 20 -8z m82
-21 c13 13 40 4 32 -12 -3 -6 1 -3 8 6 13 15 15 15 27 -4 7 -12 18 -17 28 -14
12 5 13 4 5 -7 -7 -8 -9 -16 -6 -19 3 -3 1 -9 -5 -13 -10 -5 -15 7 -12 28 0 4
-5 8 -11 8 -7 1 -20 2 -28 3 -8 1 -20 -2 -26 -6 -6 -5 -21 4 -35 19 -13 15
-16 21 -6 14 13 -10 21 -11 29 -3z"/>
<path d="M7100 2780 c-8 -5 -10 -10 -5 -10 6 0 17 5 25 10 8 5 11 10 5 10 -5
0 -17 -5 -25 -10z"/>
<path d="M7033 2565 c0 -8 4 -15 9 -15 4 0 8 4 8 9 0 6 -4 12 -8 15 -5 3 -9
-1 -9 -9z"/>
<path d="M7050 2160 c0 -5 5 -10 10 -10 6 0 10 5 10 10 0 6 -4 10 -10 10 -5 0
-10 -4 -10 -10z"/>
<path d="M7040 2020 c8 -5 20 -10 25 -10 6 0 3 5 -5 10 -8 5 -19 10 -25 10 -5
0 -3 -5 5 -10z"/>
<path d="M7073 1904 c0 -17 2 -22 7 -13 5 6 6 18 3 26 -8 19 -10 16 -10 -13z"/>
<path d="M6879 1793 c-13 -16 -12 -17 4 -4 9 7 17 15 17 17 0 8 -8 3 -21 -13z"/>
<path d="M6785 1609 c-4 -6 -5 -12 -2 -15 2 -3 7 2 10 11 7 17 1 20 -8 4z"/>
<path d="M6890 1470 c11 -11 23 -20 27 -20 3 0 -2 9 -12 20 -10 11 -22 20 -27
20 -4 0 1 -9 12 -20z"/>
<path d="M6692 1466 c4 -5 2 -16 -4 -25 -7 -9 -8 -13 -4 -9 5 4 15 3 22 -3 9
-8 16 -5 24 12 9 16 9 20 1 14 -7 -4 -20 -1 -29 6 -9 7 -14 9 -10 5z"/>
<path d="M6630 1395 c-7 -8 -11 -15 -9 -16 2 0 15 -2 29 -5 21 -3 22 -2 7 7
-9 6 -15 14 -12 20 10 14 -1 11 -15 -6z"/>
<path d="M6832 1401 c-7 -18 -7 -33 0 -42 8 -11 9 -10 4 4 -3 9 -2 17 2 17 4
0 8 11 8 25 2 33 -2 32 -14 -4z"/>
<path d="M6806 1393 c-6 -14 -5 -15 5 -6 7 7 10 15 7 18 -3 3 -9 -2 -12 -12z"/>
<path d="M6830 1329 c0 -5 5 -7 10 -4 6 3 10 8 10 11 0 2 -4 4 -10 4 -5 0 -10
-5 -10 -11z"/>
<path d="M6536 1242 c-3 -5 1 -9 9 -9 8 0 12 4 9 9 -3 4 -7 8 -9 8 -2 0 -6 -4
-9 -8z"/>
<path d="M6705 1211 c-3 -5 -2 -12 3 -15 5 -3 9 1 9 9 0 17 -3 19 -12 6z"/>
<path d="M6753 1360 c1 -5 -7 -16 -18 -25 -20 -16 -20 -16 2 -5 12 5 25 15 28
20 4 6 12 7 18 4 7 -4 8 -3 4 1 -10 12 -37 15 -34 5z"/>
<path d="M6727 1299 c7 -7 15 -10 18 -7 3 3 -2 9 -12 12 -14 6 -15 5 -6 -5z"/>
<path d="M6535 1170 c-8 -13 4 -32 15 -25 5 3 11 1 15 -5 3 -5 1 -10 -4 -10
-6 0 -11 -5 -11 -11 0 -8 5 -8 15 1 12 10 18 10 29 1 10 -8 16 -9 21 -1 4 6 3
10 -2 9 -24 -4 -25 3 -3 18 14 10 29 17 33 15 5 -1 5 2 2 8 -5 8 -13 6 -25 -5
-11 -10 -24 -14 -31 -9 -8 5 -10 3 -4 -6 5 -8 3 -11 -6 -8 -8 3 -13 10 -12 16
3 14 -25 24 -32 12z"/>
<path d="M6176 1098 c3 -5 10 -6 15 -3 13 9 11 12 -6 12 -8 0 -12 -4 -9 -9z"/>
<path d="M6570 1106 c0 -2 7 -7 16 -10 8 -3 12 -2 9 4 -6 10 -25 14 -25 6z"/>
<path d="M5493 1069 c10 -17 37 -16 37 2 0 4 -7 5 -17 2 -10 -4 -14 -2 -10 4
3 5 0 10 -7 10 -11 0 -12 -4 -3 -18z"/>
<path d="M6351 1076 c-8 -10 -9 -16 -1 -21 5 -3 10 -5 11 -3 4 18 7 38 4 38
-1 0 -8 -6 -14 -14z"/>
<path d="M5896 1062 c-3 -4 4 -9 15 -9 23 -2 25 3 4 10 -8 4 -16 3 -19 -1z"/>
<path d="M6315 1020 c-3 -5 -1 -10 4 -10 6 0 11 5 11 10 0 6 -2 10 -4 10 -3 0
-8 -4 -11 -10z"/>
<path d="M6015 989 c-4 -6 -5 -12 -2 -15 2 -3 7 2 10 11 7 17 1 20 -8 4z"/>
<path d="M2134 6874 c1 -8 6 -17 11 -21 4 -4 5 -2 1 5 -4 6 -2 12 3 12 6 0 11
4 11 8 0 5 -6 9 -14 9 -7 0 -13 -6 -12 -13z"/>
<path d="M2101 6844 c0 -11 3 -14 6 -6 3 7 2 16 -1 19 -3 4 -6 -2 -5 -13z"/>
<path d="M2127 6839 c7 -7 15 -10 18 -7 3 3 -2 9 -12 12 -14 6 -15 5 -6 -5z"/>
<path d="M2079 6838 c-6 -22 -5 -39 3 -45 6 -3 8 -1 4 5 -3 5 0 13 6 15 10 4
10 6 0 6 -7 1 -10 6 -7 11 3 6 4 10 1 10 -3 0 -6 -1 -7 -2z"/>
<path d="M2115 6810 c-3 -5 -3 -10 2 -10 4 0 1 -5 -7 -11 -12 -8 -12 -10 -1
-7 8 2 15 12 17 21 3 19 -2 22 -11 7z"/>
<path d="M2045 6799 c-4 -6 -5 -12 -2 -15 2 -3 7 2 10 11 7 17 1 20 -8 4z"/>
<path d="M2135 6780 c-3 -6 1 -7 9 -4 18 7 21 14 7 14 -6 0 -13 -4 -16 -10z"/>
<path d="M2096 6755 c4 -8 8 -15 10 -15 2 0 4 7 4 15 0 8 -4 15 -10 15 -5 0
-7 -7 -4 -15z"/>
<path d="M2060 6746 c0 -2 7 -6 15 -10 8 -3 15 -1 15 4 0 6 -7 10 -15 10 -8 0
-15 -2 -15 -4z"/>
<path d="M2116 6735 c-3 -9 -6 -22 -5 -28 0 -7 5 -1 10 12 5 13 8 26 5 28 -2
2 -6 -3 -10 -12z"/>
<path d="M2036 6707 c3 -10 9 -15 12 -12 3 3 0 11 -7 18 -10 9 -11 8 -5 -6z"/>
<path d="M2133 6696 c3 -8 -5 -18 -19 -25 -15 -7 -22 -16 -18 -23 5 -8 2 -9
-9 -5 -10 3 -17 2 -17 -4 0 -6 8 -9 18 -7 9 2 16 10 14 17 -2 9 3 11 13 7 11
-4 14 -2 9 6 -5 7 -2 9 7 6 11 -4 15 1 15 18 0 13 -4 24 -9 24 -5 0 -7 -6 -4
-14z"/>
<path d="M2110 6621 c0 -5 7 -11 14 -14 10 -4 13 -1 9 9 -6 15 -23 19 -23 5z"/>
<path d="M2089 6603 c9 -18 8 -22 -7 -26 -14 -4 -14 -5 -1 -6 9 0 23 7 30 17
7 9 9 14 5 10 -5 -4 -15 0 -23 10 -13 15 -13 15 -4 -5z"/>
<path d="M2135 6580 c3 -5 11 -10 16 -10 6 0 7 5 4 10 -3 6 -11 10 -16 10 -6
0 -7 -4 -4 -10z"/>
<path d="M2111 6532 c-11 -21 2 -48 18 -38 6 4 11 15 10 24 0 14 -2 14 -8 -2
-5 -13 -10 -16 -14 -9 -4 6 0 19 9 27 8 9 11 16 5 16 -6 0 -15 -8 -20 -18z"/>
<path d="M2150 6530 c0 -5 5 -10 11 -10 5 0 7 5 4 10 -3 6 -8 10 -11 10 -2 0
-4 -4 -4 -10z"/>
<path d="M2154 6502 c3 -5 0 -12 -6 -15 -7 -2 -10 -7 -7 -11 3 -4 12 0 18 8 9
11 9 16 0 22 -7 4 -9 3 -5 -4z"/>
<path d="M7153 2885 c-3 -9 -3 -18 -1 -21 3 -3 8 4 11 16 6 23 -1 27 -10 5z"/>
<path d="M7146 2834 c-7 -18 10 -44 28 -44 6 0 3 5 -6 11 -10 5 -18 15 -18 21
0 6 7 5 18 -3 15 -13 16 -12 4 3 -10 13 -10 17 0 21 9 4 8 6 -3 6 -9 1 -20 -6
-23 -15z"/>
<path d="M7170 2741 c0 -6 4 -13 10 -16 6 -3 7 1 4 9 -7 18 -14 21 -14 7z"/>
<path d="M7170 2635 c0 -8 4 -15 10 -15 5 0 7 7 4 15 -4 8 -8 15 -10 15 -2 0
-4 -7 -4 -15z"/>
<path d="M7161 2261 c-7 -5 -10 -14 -7 -20 11 -18 25 -13 23 9 -1 11 -1 20 -2
20 0 0 -6 -4 -14 -9z"/>
<path d="M5157 1184 c-3 -4 1 -13 9 -21 19 -20 26 -13 10 9 -7 10 -16 15 -19
12z"/>
<path d="M5230 1122 c0 -5 6 -9 13 -9 6 0 21 -4 32 -7 13 -5 12 -2 -5 8 -29
17 -40 20 -40 8z"/>
<path d="M5300 1116 c0 -8 4 -17 9 -20 5 -4 7 3 4 14 -6 23 -13 26 -13 6z"/>
<path d="M5340 1105 c-6 -8 -10 -19 -8 -26 2 -6 9 0 16 15 13 29 10 33 -8 11z"/>
<path d="M5436 1091 c-3 -5 -14 -7 -24 -5 -10 3 -22 -3 -30 -16 -7 -11 -8 -20
-3 -20 5 0 11 7 15 15 3 8 10 15 16 15 6 0 8 -4 5 -10 -3 -5 -2 -10 2 -10 5 0
14 9 21 20 7 11 10 20 8 20 -3 0 -7 -4 -10 -9z"/>
<path d="M5514 1007 c-4 -7 -4 -9 1 -5 4 4 14 3 22 -3 8 -7 13 -8 13 -1 0 15
-28 23 -36 9z"/>
</g>
</svg>
